<?xml version="1.0" standalone="no"?>
<!DOCTYPE svg PUBLIC "-//W3C//DTD SVG 20010904//EN"
 "http://www.w3.org/TR/2001/REC-SVG-20010904/DTD/svg10.dtd">
<svg version="1.0" xmlns="http://www.w3.org/2000/svg"
 width="298.000000pt" height="310.000000pt" viewBox="0 0 298.000000 310.000000"
 preserveAspectRatio="xMidYMid meet">

<g transform="translate(0.000000,310.000000) scale(0.100000,-0.100000)"
fill="#000000" stroke="none">
<path d="M1365 2858 c-19 -63 -105 -77 -130 -20 -12 28 -26 28 -123 -3 -109
-34 -172 -63 -172 -79 0 -27 -38 -49 -72 -42 -24 5 -40 0 -70 -19 -35 -23 -50
-45 -30 -45 4 0 15 -13 25 -29 22 -37 22 -124 1 -160 -20 -34 -70 -69 -112
-77 -42 -8 -115 19 -142 53 -20 25 -21 26 -41 8 -50 -46 -208 -279 -169 -249
46 35 110 8 110 -45 0 -81 -129 -81 -130 0 -1 20 -5 16 -25 -21 -28 -52 -31
-70 -11 -70 24 0 56 -34 62 -67 5 -26 1 -37 -20 -58 -27 -27 -53 -30 -97 -11
-14 6 -20 -11 -40 -111 -30 -149 -33 -389 -6 -522 85 -417 337 -755 709 -951
170 -90 403 -150 577 -150 l71 0 0 190 0 190 -426 0 -425 0 3 43 3 42 85 3
c49 1 99 9 117 17 17 9 55 20 84 25 29 6 57 16 61 23 13 18 0 83 -26 135 l-23
46 -62 -3 c-122 -5 -220 73 -262 210 -25 79 -24 145 2 215 20 53 80 134 100
134 5 0 13 -10 18 -22 14 -35 58 -71 145 -118 43 -24 94 -59 113 -78 83 -82
95 -191 31 -260 -32 -33 -50 -27 -83 27 -16 27 -68 89 -114 137 -70 74 -81 82
-62 48 13 -23 69 -97 125 -165 55 -68 110 -143 120 -167 l19 -42 29 40 c17 22
35 40 41 40 6 0 3 6 -7 13 -26 19 -36 77 -20 123 18 53 69 98 143 125 44 15
72 34 95 61 41 47 57 43 85 -22 50 -116 -2 -265 -111 -321 -32 -16 -55 -20
-106 -17 l-66 3 -33 -43 c-22 -29 -33 -55 -33 -77 0 -32 2 -34 50 -44 28 -6
64 -18 80 -26 22 -11 64 -15 170 -15 l142 0 -4 385 c-2 268 -6 387 -14 395
-16 16 -48 -5 -62 -39 -9 -21 -10 -22 -6 -3 5 22 5 22 -20 -3 -14 -14 -26 -30
-26 -35 0 -6 -4 -10 -10 -10 -5 0 -10 11 -10 25 0 15 -6 25 -14 25 -21 0 -26
23 -26 126 0 56 -4 94 -10 94 -5 0 -10 9 -10 20 0 22 25 27 34 8 4 -7 4 3 1
22 -4 27 -2 31 6 20 8 -11 12 -12 16 -2 2 6 11 12 18 12 8 0 21 10 29 22 9 12
16 17 16 10 0 -7 8 -12 18 -11 31 3 43 -1 37 -11 -3 -6 1 -7 9 -4 9 4 18 -1
22 -10 3 -9 10 -14 14 -11 5 3 11 1 15 -5 4 -6 11 -7 17 -4 6 4 8 2 4 -4 -3
-6 10 -17 31 -27 21 -9 46 -28 56 -41 l19 -25 -41 -17 c-22 -9 -41 -23 -41
-29 0 -7 -9 -13 -21 -13 -14 0 -19 -5 -17 -17 5 -28 157 -30 237 -3 33 11 74
20 90 20 28 0 29 1 24 43 -6 44 -54 132 -82 146 -9 5 -25 5 -36 0 -35 -14
-109 -9 -150 10 -52 24 -94 67 -125 127 -21 42 -25 63 -25 141 0 85 2 94 30
134 17 23 35 44 40 45 6 2 19 -11 30 -29 27 -42 78 -75 148 -94 47 -14 67 -26
102 -66 27 -29 47 -63 51 -83 8 -46 -1 -102 -21 -124 -15 -17 -13 -21 23 -61
l40 -42 22 44 c23 44 53 84 166 215 66 77 112 140 138 191 24 47 -160 -145
-206 -215 -70 -107 -62 -100 -94 -76 -46 33 -67 78 -66 140 1 109 63 185 217
269 102 56 160 104 169 140 4 14 10 25 15 25 17 0 93 -92 112 -136 11 -25 23
-75 26 -112 10 -119 -25 -224 -103 -312 -63 -70 -119 -94 -215 -93 l-77 0 -26
-57 c-18 -39 -26 -75 -26 -112 l0 -55 56 -7 c30 -3 71 -13 90 -21 24 -10 78
-15 180 -16 142 -1 146 -1 156 -24 6 -13 8 -35 4 -49 l-6 -26 -423 -2 -422 -3
0 -590 0 -590 40 3 c22 2 72 10 110 18 521 105 937 522 1052 1055 25 118 25
419 0 537 -141 643 -681 1082 -1331 1082 l-122 0 -9 -32z m-192 -40 c28 -22
32 -73 8 -97 -55 -55 -147 20 -98 81 22 28 63 35 90 16z m260 -149 c56 -67
-42 -160 -103 -99 -12 12 -20 33 -20 54 0 66 80 95 123 45z m-208 -44 c45 -44
21 -105 -40 -105 -68 0 -86 86 -25 117 34 17 37 17 65 -12z m-199 -3 c6 -4 16
-17 23 -29 18 -36 -11 -82 -51 -83 -24 0 -58 35 -58 60 0 40 55 73 86 52z
m192 -204 c20 -43 -2 -82 -49 -86 -62 -5 -93 55 -52 100 26 29 84 21 101 -14z
m187 -13 c14 -13 25 -36 25 -50 0 -28 -40 -75 -64 -75 -32 0 -64 20 -75 48
-10 25 -10 35 3 60 25 49 73 56 111 17z m-437 -11 c28 -19 29 -57 2 -84 -47
-47 -119 5 -89 63 22 40 50 47 87 21z m-418 -64 c11 -11 20 -27 20 -36 0 -47
-54 -83 -93 -63 -43 23 -49 62 -17 97 26 27 64 28 90 2z m214 -51 c31 -25 34
-61 6 -89 -28 -28 -64 -25 -89 7 -24 30 -20 58 11 86 26 22 40 22 72 -4z m350
-18 c41 -45 -11 -123 -67 -102 -48 18 -55 85 -13 113 21 14 63 8 80 -11z m171
-86 c40 -39 32 -96 -17 -121 -51 -27 -108 6 -108 63 0 41 38 83 75 83 14 0 37
-11 50 -25z m-323 -32 c41 -37 10 -103 -47 -103 -39 0 -58 20 -58 60 0 16 5
36 13 44 17 21 69 20 92 -1z m-389 -14 c30 -16 37 -28 37 -65 0 -40 -30 -67
-72 -66 -63 2 -89 72 -43 117 27 28 45 31 78 14z m217 -61 c13 -25 13 -31 0
-55 -21 -38 -81 -45 -104 -11 -20 28 -20 48 0 76 23 34 83 27 104 -10z m293
-80 c38 -45 7 -118 -51 -118 -45 0 -72 25 -72 69 0 72 76 103 123 49z m-522
-67 c36 -36 37 -73 4 -106 -44 -45 -127 -26 -138 31 -16 87 72 136 134 75z
m272 -22 c31 -38 21 -91 -22 -113 -83 -43 -157 61 -86 122 33 28 79 25 108 -9z
m487 -354 c0 -25 -4 -45 -10 -45 -5 0 -10 20 -10 45 0 25 5 45 10 45 6 0 10
-20 10 -45z m1335 -278 c70 -42 86 -66 65 -97 -8 -12 -13 -13 -30 -2 -29 18
-32 15 -14 -13 21 -32 12 -55 -21 -55 -14 0 -25 -4 -25 -10 0 -5 4 -10 8 -10
24 0 43 -27 37 -53 -4 -15 -12 -27 -19 -27 -26 1 -166 91 -166 108 0 31 18 46
64 51 l46 6 -31 46 c-22 35 -28 53 -23 73 9 36 27 33 109 -17z m-105 -237 c11
-11 20 -29 20 -40 0 -15 7 -20 24 -20 32 0 39 -13 25 -44 -9 -19 -20 -26 -41
-26 -28 0 -37 -13 -18 -25 14 -9 12 -38 -4 -60 -13 -18 -15 -18 -37 -2 -13 9
-48 38 -78 65 l-54 49 32 56 c17 30 37 58 44 60 28 12 68 6 87 -13z m-117
-211 c42 -22 77 -46 77 -53 0 -19 -37 -49 -50 -41 -18 11 -50 -25 -50 -55 0
-33 -34 -80 -48 -65 -11 12 -62 176 -62 201 0 20 28 54 44 54 6 0 46 -18 89
-41z m-165 -84 c10 -22 8 -27 -24 -53 -39 -33 -31 -53 8 -22 19 14 28 16 36 8
20 -20 14 -45 -15 -66 -26 -19 -27 -22 -14 -46 13 -23 12 -28 -4 -46 -10 -11
-24 -20 -31 -20 -13 0 -94 147 -94 169 0 9 110 101 121 101 3 0 11 -11 17 -25z
m-140 -118 c2 -18 -3 -29 -17 -36 -20 -11 -20 -11 0 -68 25 -72 24 -77 -7 -98
-31 -20 -34 -17 -59 62 -18 57 -21 59 -47 39 -14 -10 -18 -28 -18 -73 0 -72
-26 -108 -85 -119 -70 -13 -95 17 -109 129 -5 45 -4 48 21 58 40 15 49 6 56
-56 7 -65 9 -70 33 -61 14 5 16 16 10 76 -7 67 -6 70 16 79 13 5 59 29 103 55
44 25 85 44 90 42 6 -1 11 -14 13 -29z"/>
<path d="M2476 961 c-7 -11 18 -33 27 -24 4 3 7 12 7 20 0 15 -26 18 -34 4z"/>
<path d="M2375 760 c3 -5 8 -10 11 -10 2 0 4 5 4 10 0 6 -5 10 -11 10 -5 0 -7
-4 -4 -10z"/>
<path d="M1641 1944 c22 -28 69 -70 69 -62 0 2 -21 24 -47 48 -31 30 -38 35
-22 14z"/>
<path d="M1789 1813 c12 -24 31 -39 31 -25 0 5 -10 17 -21 28 -22 19 -22 19
-10 -3z"/>
<path d="M1253 1016 c-54 -43 -120 -116 -77 -86 38 27 138 120 133 124 -2 2
-28 -15 -56 -38z"/>
</g>
</svg>
