<svg fill="none" height="495" viewBox="0 0 662 495" width="662" xmlns="http://www.w3.org/2000/svg" xmlns:xlink="http://www.w3.org/1999/xlink"><clipPath id="a"><path d="m0 0h662v494.007h-662z"/></clipPath><g clip-path="url(#a)"><path d="m649.276 337.433h-494.21c-3.373-.004-6.608-1.346-8.993-3.731-2.386-2.386-3.727-5.62-3.731-8.994v-304.7391c.003-2.4715.986-4.8411 2.733-6.5888 1.748-1.7476 4.117-2.7308 6.589-2.7336h500.853c2.514.0029 4.925 1.0029 6.703 2.7809 1.778 1.7779 2.778 4.1884 2.78 6.7027v304.5779c-.003 3.374-1.345 6.608-3.731 8.994-2.385 2.385-5.62 3.727-8.993 3.731z" fill="#f2f2f2"/><path d="m631.247 319.413h-460.59c-6.752 0-12.245-5.144-12.245-11.466v-265.3709c0-4.6889 4.07-8.5038 9.074-8.5038h466.782c5.086 0 9.224 3.8778 9.224 8.6439v265.2308c0 6.322-5.494 11.466-12.245 11.466z" fill="#fff"/><path d="m661.822 19.2414h-519.66v-6.4783c.005-3.38486 1.352-6.62957 3.747-9.02228 2.394-2.39272 5.639-3.7380367 9.024-3.74082h494.118c3.385.00278579 6.631 1.34811 9.025 3.74083s3.741 5.63742 3.746 9.02227z" fill="#e6e6e6"/><g fill="#fff"><path d="m165.372 12.9426c1.824 0 3.303-1.4789 3.303-3.30333 0-1.82438-1.479-3.30333-3.303-3.30333-1.825 0-3.304 1.47895-3.304 3.30333 0 1.82443 1.479 3.30333 3.304 3.30333z"/><path d="m177.911 12.9426c1.824 0 3.303-1.4789 3.303-3.30333 0-1.82438-1.479-3.30333-3.303-3.30333-1.825 0-3.304 1.47895-3.304 3.30333 0 1.82443 1.479 3.30333 3.304 3.30333z"/><path d="m190.45 12.9426c1.824 0 3.303-1.4789 3.303-3.30333 0-1.82438-1.479-3.30333-3.303-3.30333-1.825 0-3.304 1.47895-3.304 3.30333 0 1.82443 1.479 3.30333 3.304 3.30333z"/></g><path d="m364.45 244.818h246.657c3.273 0 6.411-1.3 8.725-3.614s3.614-5.452 3.614-8.725v-111.474c0-3.272-1.3-6.411-3.614-8.725s-5.452-3.614-8.725-3.614h-246.657c-3.272 0-6.411 1.3-8.725 3.614s-3.614 5.453-3.614 8.725v111.474c0 3.273 1.3 6.411 3.614 8.725s5.453 3.614 8.725 3.614z" fill="#f2f2f2"/><path d="m584.177 182.911h-196.654c-1.636 0-3.205-.65-4.362-1.807s-1.807-2.726-1.807-4.362.65-3.206 1.807-4.363 2.726-1.807 4.362-1.807h196.654c1.636 0 3.205.65 4.362 1.807s1.807 2.727 1.807 4.363-.65 3.205-1.807 4.362-2.726 1.807-4.362 1.807z" fill="#fff"/><path d="m584.177 209.132h-196.654c-1.636 0-3.205-.65-4.362-1.807s-1.807-2.726-1.807-4.362c0-1.637.65-3.206 1.807-4.363s2.726-1.807 4.362-1.807h196.654c1.636 0 3.205.65 4.362 1.807s1.807 2.726 1.807 4.363c0 1.636-.65 3.205-1.807 4.362s-2.726 1.807-4.362 1.807z" fill="#fff"/><path d="m549.473 156.691h-161.95c-1.636 0-3.205-.65-4.362-1.807s-1.807-2.727-1.807-4.363.65-3.205 1.807-4.362 2.726-1.807 4.362-1.807h161.95c1.637 0 3.206.65 4.363 1.807s1.807 2.726 1.807 4.362-.65 3.206-1.807 4.363-2.726 1.807-4.363 1.807z" fill="#fff"/><path d="m243.32 294.733c.28-1.341.851-2.605 1.672-3.702s1.872-2.001 3.08-2.648c1.208-.646 2.543-1.02 3.912-1.095 1.368-.075 2.736.151 4.007.662l21.866-25.126 4.645 16.674-21.477 21.304c-1 2.079-2.727 3.718-4.856 4.609-2.128.89-4.509.968-6.691.22-2.183-.748-4.015-2.27-5.15-4.279s-1.493-4.364-1.007-6.619z" fill="#ffb8b8"/><path d="m363.331 176.825c12.643 0 22.893-10.249 22.893-22.893 0-12.643-10.25-22.893-22.893-22.893-12.644 0-22.893 10.25-22.893 22.893 0 12.644 10.249 22.893 22.893 22.893z" fill="#ffb8b8"/><path d="m336.438 469.046-11.428-.001-5.436-44.076 16.865.001z" fill="#ffb8b8"/><path d="m339.35 480.123-36.846-.001v-.466c0-1.884.371-3.749 1.092-5.489.72-1.74 1.777-3.321 3.108-4.652 1.332-1.332 2.913-2.388 4.653-3.109s3.605-1.092 5.489-1.092l22.505.001z" fill="#2f2e41"/><path d="m370.923 481.165-11.427-.001-1.582-43.024 13.011-1.052z" fill="#ffb8b8"/><path d="m373.838 492.24-36.846-.001v-.466c0-1.883.371-3.748 1.092-5.488s1.777-3.321 3.109-4.653c1.331-1.332 2.912-2.388 4.653-3.109 1.74-.721 3.604-1.091 5.488-1.091h.001l22.504.001z" fill="#2f2e41"/><path d="m367.674 473.12-8.899-1.048c-1.009-.121-1.94-.604-2.621-1.358-.681-.755-1.066-1.731-1.083-2.747l-1.667-115.895c-.005-.328-.125-.644-.339-.892-.215-.249-.509-.414-.833-.467-.323-.053-.655.009-.938.176-.282.167-.497.428-.606.737l-12.346 34.859.883 65.341c.015 1.079-.387 2.122-1.121 2.912s-1.744 1.267-2.821 1.332l-11.617.493c-1.063.061-2.109-.283-2.929-.961-.82-.679-1.354-1.642-1.494-2.697l-6.067-73.916-.004-.046 9.206-77.195 69.146 5.003-19.195 162.695c-.121 1.019-.612 1.959-1.379 2.641s-1.757 1.06-2.784 1.062c-.164 0-.329-.01-.492-.029z" fill="#2f2e41"/><path d="m322.673 308.592c-.62-.331-1.147-.814-1.531-1.404s-.612-1.267-.663-1.969c0 0 6.217-38.667 8.496-39.392l-4.985-41.351c-.598-5.043-.181-10.155 1.224-15.035 1.406-4.881 3.772-9.431 6.96-13.384 3.07-3.836 6.885-7.009 11.216-9.329 4.33-2.32 9.086-3.739 13.98-4.17.697-.063 1.39-.111 2.079-.144 5.899-.316 11.787.797 17.164 3.244 5.377 2.448 10.084 6.157 13.72 10.814 3.771 4.696 6.353 10.233 7.524 16.142 1.172 5.908.899 12.011-.795 17.792l-2.796 9.73v68.002c-.003.663-.162 1.317-.463 1.909-.301.591-.737 1.103-1.273 1.496-8.706 6.39-18.545 8.649-28.107 8.649-18.093 0-35.193-8.09-41.75-11.6z" fill="#37c2cc"/><path d="m268.994 296.148-12.026-8.993c-.472-.352-.864-.8-1.151-1.315-.287-.514-.463-1.083-.515-1.67-.053-.587.019-1.178.21-1.735s.498-1.068.9-1.499l71.643-76.873c2.3-2.446 5.4-3.987 8.739-4.342s6.694.499 9.456 2.407h.001c1.683 1.174 3.087 2.704 4.111 4.482 1.025 1.778 1.645 3.76 1.816 5.805.172 2.045-.11 4.102-.824 6.026-.715 1.924-1.844 3.666-3.309 5.103l-73.601 72.239c-.647.641-1.486 1.052-2.388 1.172-.903.119-1.82-.061-2.61-.512-.157-.088-.308-.187-.452-.295z" fill="#37c2cc"/><path d="m361.038 285.969c.525-1.265 1.322-2.4 2.334-3.324 1.011-.924 2.213-1.615 3.521-2.025 1.308-.409 2.689-.527 4.047-.345 1.358.183 2.66.661 3.813 1.4l26.179-20.593 1.445 17.248-25.082 16.912c-1.371 1.855-3.375 3.143-5.632 3.619-2.257.477-4.611.109-6.615-1.034s-3.519-2.982-4.258-5.167-.651-4.566.248-6.691z" fill="#ffb8b8"/><path d="m384.469 294.01c-.693-.215-1.318-.608-1.812-1.139-.494-.532-.841-1.183-1.006-1.889l-2.644-11.107c-.194-.789-.152-1.617.122-2.381.273-.765.766-1.432 1.416-1.918l17.793-19.243-26.172-40.356c-1.981-2.439-3.097-5.466-3.175-8.607s.887-6.219 2.744-8.754c1.481-2.019 3.469-3.611 5.764-4.615 2.294-1.003 4.812-1.383 7.3-1.099 2.488.283 4.857 1.219 6.867 2.713 2.01 1.493 3.589 3.492 4.578 5.792l24.332 47.36c2.419 4.705 3.022 10.136 1.695 15.258-1.327 5.121-4.492 9.575-8.892 12.514l-24.865 16.61c-.762.681-1.747 1.058-2.769 1.059-.433 0-.863-.067-1.276-.198z" fill="#37c2cc"/><path d="m380.294 174.399c-.539.323-1.146.519-1.773.57-.627.052-1.258-.041-1.843-.273-.585-.231-1.109-.593-1.532-1.06-.422-.466-.732-1.023-.904-1.628l-.014-.057c-.467-1.905-.099-3.899.022-5.856.12-1.957-.083-4.106-1.423-5.537-2.499-2.669-6.91-1.223-10.506-1.882-2.107-.459-3.974-1.669-5.253-3.405-1.278-1.735-1.88-3.877-1.694-6.025.049-.407.127-.815.215-1.222.219-1.032.196-2.101-.067-3.123-.264-1.022-.761-1.968-1.452-2.766-.69-.797-1.557-1.424-2.531-1.83-.973-.406-2.028-.581-3.081-.511-3.629.227-7.542 1.347-10.56-1.325-1.106-1.055-1.878-2.412-2.218-3.903-.341-1.49-.235-3.048.305-4.478 1.688-4.96 6.521-7.577 11.31-9.027 5.924-1.746 12.161-2.15 18.26-1.183 6.099.968 11.906 3.282 16.998 6.774 3.041 2.12 5.885 4.788 7.194 8.255 1.31 3.468.711 7.855-2.189 10.164 2.27 2.377 3.875 5.31 4.655 8.503.779 3.194.706 6.536-.213 9.692-1.413 4.642-8.253 9.121-11.706 11.133z" fill="#2f2e41"/><path d="m405.363 494.007h-137.017c-.247 0-.484-.098-.659-.273s-.273-.412-.273-.659c0-.248.098-.485.273-.659.175-.175.412-.273.659-.273h137.017c.515 0 .418.932.932.932.232 0-.417.932-.932.932z" fill="#ccc"/><path d="m254.751 109.831c-.789-2.184-2.232-4.072-4.132-5.408-1.899-1.336-4.164-2.054-6.487-2.058h-232.8498c-2.99106-.001-5.86009 1.186-7.97591 3.3-2.11582 2.115-3.30513083 4.983-3.30629 7.974v178.694c.00423613 2.991 1.19426 5.859 3.30916 7.973 2.11491 2.115 4.98212 3.305 7.97304 3.31h232.8498c2.991-.005 5.858-1.195 7.973-3.31 2.115-2.114 3.305-4.982 3.309-7.973v-178.686c.002-1.3-.222-2.592-.663-3.816z" fill="#fff"/><path d="m254.751 109.831c-.789-2.184-2.232-4.072-4.132-5.408-1.899-1.336-4.164-2.054-6.487-2.058h-232.8498c-2.99106-.001-5.86009 1.186-7.97591 3.3-2.11582 2.115-3.30513083 4.983-3.30629 7.974v178.694c.00423613 2.991 1.19426 5.859 3.30916 7.973 2.11491 2.115 4.98212 3.305 7.97304 3.31h232.8498c2.991-.005 5.858-1.195 7.973-3.31 2.115-2.114 3.305-4.982 3.309-7.973v-178.686c.002-1.3-.222-2.592-.663-3.816zm-.664 182.502c-.003 2.64-1.053 5.17-2.919 7.036-1.867 1.866-4.397 2.916-7.036 2.919h-232.8498c-2.6392-.003-5.16938-1.053-7.03557-2.919s-2.91603-4.396-2.91924-7.036v-178.686c.00321-2.639 1.05305-5.169 2.91925-7.035s4.39638-2.916 7.03556-2.919h232.8498c2.639.003 5.169 1.053 7.036 2.919 1.866 1.866 2.916 4.396 2.919 7.035z" fill="#3f3d56"/><path d="m237.456 126.409v124.771c0 .833-.33 1.631-.919 2.221-.588.589-1.387.92-2.22.92h-211.8085c-.1508.001-.3014-.01-.4502-.035-.7471-.108-1.4305-.481-1.9248-1.051-.4942-.571-.7663-1.3-.7663-2.055v-124.771c-.0001-.413.0809-.821.2386-1.202s.3889-.727.6804-1.019.6376-.523 1.0185-.681c.381-.158.7893-.239 1.2017-.239h211.8086c.412-.001.821.081 1.202.238.381.158.727.389 1.019.681.291.291.523.637.681 1.018s.239.789.239 1.202z" fill="#e6e6e6"/><path d="m72.758 197.455c15.2203 0 27.559-12.338 27.559-27.558 0-15.221-12.3387-27.559-27.559-27.559s-27.5588 12.338-27.5588 27.559c0 15.22 12.3385 27.558 27.5588 27.558z" fill="#37c2cc"/><path d="m159.179 254.822h-135.1953c-.1693.002-.3384-.012-.5052-.04l63.9411-110.756c.3903-.689.9566-1.263 1.6412-1.662.6846-.4 1.4629-.61 2.2554-.61s1.5708.21 2.2554.61c.6846.399 1.251.973 1.6412 1.662l42.9122 74.326 2.056 3.556z" fill="#3f3d56"/><path d="m159.178 254.821h-46.158l22.659-32.914 1.631-2.37.815-1.185 2.056 3.555z" fill="#000" opacity=".2"/><path d="m234.454 254.823h-116.933l22.66-32.914 1.63-2.371 29.527-42.892c1.936-2.812 6.593-2.987 8.869-.531.153.168.295.345.425.531z" fill="#3f3d56"/></g></svg>