<svg fill="none" height="421" viewBox="0 0 600 421" width="600" xmlns="http://www.w3.org/2000/svg" xmlns:xlink="http://www.w3.org/1999/xlink"><clipPath id="a"><path d="m0 0h600v420.712h-600z"/></clipPath><g clip-path="url(#a)"><path d="m490.063 263.849h-386.436c-2.637-.003-5.1665-1.052-7.0318-2.917-1.8653-1.866-2.9145-4.395-2.9175-7.033v-238.2834c.0022-1.9325.7708-3.7853 2.1374-5.1519 1.3665-1.36658 3.2193-2.1353 5.1519-2.13753h391.63c1.966.00224 3.851.78423 5.241 2.17443s2.172 3.2751 2.175 5.2411v238.1573c-.003 2.638-1.053 5.167-2.918 7.033-1.865 1.865-4.394 2.914-7.032 2.917z" fill="#f2f2f2"/><path d="m475.966 249.758h-360.147c-5.28 0-9.575-4.022-9.575-8.966v-207.5001c0-3.6663 3.183-6.6493 7.095-6.6493h364.989c3.977 0 7.213 3.0321 7.213 6.7589v207.3905c0 4.944-4.296 8.966-9.575 8.966z" fill="#fff"/><path d="m499.875 15.0453h-406.3359v-5.06552c.0038-2.6467 1.0573-5.18381 2.9294-7.05473s4.4095-2.92286338 7.0565-2.92505h386.364c2.647.00217387 5.184 1.05411 7.057 2.92504 1.872 1.87092 2.925 4.40804 2.929 7.05474z" fill="#ccc"/><path d="m111.686 10.121c1.427 0 2.583-1.15642 2.583-2.58296 0-1.42653-1.156-2.58296-2.583-2.58296-1.426 0-2.582 1.15643-2.582 2.58296 0 1.42654 1.156 2.58296 2.582 2.58296z" fill="#fff"/><path d="m121.491 10.121c1.427 0 2.583-1.15642 2.583-2.58296 0-1.42653-1.156-2.58296-2.583-2.58296-1.426 0-2.583 1.15643-2.583 2.58296 0 1.42654 1.157 2.58296 2.583 2.58296z" fill="#fff"/><path d="m131.296 10.121c1.426 0 2.583-1.15642 2.583-2.58296 0-1.42653-1.157-2.58296-2.583-2.58296-1.427 0-2.583 1.15643-2.583 2.58296 0 1.42654 1.156 2.58296 2.583 2.58296z" fill="#fff"/><path d="m436.325 214.956h-279.098c-2.798-.003-5.48-1.116-7.459-3.095-1.978-1.978-3.091-4.66-3.094-7.458v-134.5652c.002-2.0924.834-4.0985 2.314-5.5781 1.48-1.4797 3.486-2.312 5.578-2.3144h284.294c2.125.0025 4.164.848 5.667 2.3513 1.503 1.5032 2.349 3.5413 2.351 5.6672v134.4392c-.003 2.798-1.116 5.48-3.094 7.458-1.979 1.979-4.661 3.092-7.459 3.095zm-281.759-151.8047c-1.773.0021-3.472.7072-4.726 1.9607-1.253 1.2535-1.958 2.9531-1.96 4.7258v134.5652c.003 2.478.988 4.854 2.741 6.606 1.752 1.752 4.128 2.738 6.606 2.741h279.098c2.478-.003 4.854-.989 6.606-2.741s2.738-4.128 2.741-6.606v-134.4392c-.002-1.8061-.72-3.5377-1.998-4.8149-1.277-1.2771-3.008-1.9955-4.814-1.9976z" fill="#ccc"/><path d="m166.875 204.403h259.802c2.559 0 5.013-1.017 6.822-2.826 1.81-1.809 2.826-4.263 2.826-6.822v-112.4915c0-2.5589-1.016-5.013-2.826-6.8224-1.809-1.8094-4.263-2.8259-6.822-2.8259h-259.802c-2.559 0-5.013 1.0165-6.823 2.8259-1.809 1.8094-2.825 4.2635-2.825 6.8224v112.4915c0 2.559 1.016 5.013 2.825 6.822 1.81 1.809 4.264 2.826 6.823 2.826z" fill="#f2f2f2"/><path d="m196.374 105.345c2.998 0 5.428-2.43 5.428-5.4276 0-2.9974-2.43-5.4272-5.428-5.4272-2.997 0-5.427 2.4298-5.427 5.4272 0 2.9976 2.43 5.4276 5.427 5.4276z" fill="#ccc"/><path d="m196.374 125.846c2.998 0 5.428-2.429 5.428-5.427 0-2.997-2.43-5.427-5.428-5.427-2.997 0-5.427 2.43-5.427 5.427 0 2.998 2.43 5.427 5.427 5.427z" fill="#ccc"/><path d="m196.374 146.348c2.998 0 5.428-2.429 5.428-5.427 0-2.997-2.43-5.427-5.428-5.427-2.997 0-5.427 2.43-5.427 5.427 0 2.998 2.43 5.427 5.427 5.427z" fill="#ccc"/><path d="m196.374 166.85c2.998 0 5.428-2.429 5.428-5.427 0-2.997-2.43-5.427-5.428-5.427-2.997 0-5.427 2.43-5.427 5.427 0 2.998 2.43 5.427 5.427 5.427z" fill="#ccc"/><path d="m402.002 100.52h-178.493c-.16 0-.313-.063-.426-.176s-.177-.267-.177-.4265c0-.16.064-.3133.177-.4264s.266-.1766.426-.1766h178.493c.16 0 .313.0635.426.1766s.177.2664.177.4264c0 .1595-.064.3135-.177.4265s-.266.176-.426.176z" fill="#ccc"/><path d="m402.002 121.022h-178.493c-.16 0-.313-.063-.426-.176s-.177-.267-.177-.427.064-.313.177-.426.266-.177.426-.177h178.493c.16 0 .313.064.426.177s.177.266.177.426-.064.314-.177.427-.266.176-.426.176z" fill="#ccc"/><path d="m402.002 141.524h-178.493c-.16 0-.313-.063-.426-.176s-.177-.267-.177-.427.064-.313.177-.426.266-.177.426-.177h178.493c.16 0 .313.064.426.177s.177.266.177.426-.064.314-.177.427-.266.176-.426.176z" fill="#ccc"/><path d="m402.002 162.026h-178.493c-.16 0-.313-.063-.426-.176s-.177-.267-.177-.427.064-.313.177-.426.266-.177.426-.177h178.493c.16 0 .313.064.426.177s.177.266.177.426-.064.314-.177.427-.266.176-.426.176z" fill="#ccc"/><path d="m257.278 182.53h-17.488c-.799-.001-1.565-.319-2.13-.884-.566-.565-.884-1.331-.885-2.131v-16.281c.001-.8.319-1.566.885-2.131.565-.565 1.331-.883 2.13-.884h17.488c.799.001 1.566.319 2.131.884s.883 1.331.884 2.131v16.281c-.001.8-.319 1.566-.884 2.131s-1.332.883-2.131.884z" fill="#37c2cc"/><path d="m296.475 182.529h-17.487c-.8-.001-1.566-.319-2.131-.884s-.883-1.332-.884-2.131v-36.784c.001-.799.319-1.566.884-2.131s1.331-.883 2.131-.884h17.487c.8.001 1.566.319 2.131.884s.883 1.332.884 2.131v36.784c-.001.799-.319 1.566-.884 2.131s-1.331.883-2.131.884z" fill="#37c2cc"/><path d="m336.274 182.529h-17.487c-.8 0-1.566-.318-2.131-.884-.566-.565-.884-1.331-.885-2.131v-57.286c.001-.799.319-1.566.885-2.131.565-.565 1.331-.883 2.131-.884h17.487c.799.001 1.566.319 2.131.884s.883 1.332.884 2.131v57.286c-.001.8-.319 1.566-.884 2.131-.565.566-1.332.884-2.131.884z" fill="#37c2cc"/><path d="m377.278 182.531h-17.488c-.799-.001-1.565-.319-2.131-.885-.565-.565-.883-1.331-.884-2.131v-77.185c.001-.8.319-1.566.884-2.131.566-.5657 1.332-.8836 2.131-.8845h17.488c.799.0009 1.566.3188 2.131.8845.565.565.883 1.331.884 2.131v77.185c-.001.8-.319 1.566-.884 2.131-.565.566-1.332.884-2.131.885z" fill="#37c2cc"/><path d="m402.002 182.53h-178.493c-.16 0-.313-.063-.426-.176s-.177-.267-.177-.427.064-.313.177-.426.266-.177.426-.177h178.493c.16 0 .313.064.426.177s.177.266.177.426-.064.314-.177.427-.266.176-.426.176z" fill="#3f3d56"/><path d="m480.422 295.02c.489-.74 1.134-1.363 1.89-1.827.755-.463 1.603-.755 2.484-.856.881-.1 1.773-.006 2.613.276.841.282 1.609.745 2.252 1.356l19.149-9.883-1.191 11.134-18.002 7.678c-1.098 1.011-2.528 1.584-4.02 1.611-1.493.027-2.943-.495-4.076-1.466-1.134-.971-1.872-2.324-2.074-3.803s.145-2.98.975-4.22z" fill="#ffb8b8"/><path d="m496.9 299.172c-.435-.341-.756-.806-.919-1.333l-1.523-4.92c-.164-.534-.16-1.104.011-1.635s.501-.996.946-1.333l15.52-11.723 16.809-31.183c.704-.907 1.58-1.666 2.577-2.235.998-.568 2.097-.934 3.236-1.078 1.139-.143 2.295-.06 3.403.243 1.107.303 2.143.822 3.05 1.526s1.666 1.58 2.234 2.578c.568.997.935 2.097 1.078 3.236s.061 2.295-.243 3.402c-.303 1.107-.822 2.144-1.526 3.05l-9.563 20.184c-2.902 6.126-7.929 10.989-14.149 13.686l-18.188 7.889c-.35.151-.728.228-1.109.224-.381-.005-.757-.089-1.104-.248-.192-.088-.374-.199-.54-.33z" fill="#3f3d56"/><path d="m541.975 234.032c8.179 0 14.81-6.631 14.81-14.811s-6.631-14.811-14.81-14.811c-8.18 0-14.811 6.631-14.811 14.811s6.631 14.811 14.811 14.811z" fill="#ffb8b8"/><path d="m535.967 413.51h-7.392l-3.516-28.516 10.911.001z" fill="#ffb8b8"/><path d="m523.293 411.396h14.258v8.977h-23.235c0-1.178.233-2.346.684-3.435s1.112-2.079 1.946-2.912c.833-.834 1.823-1.495 2.912-1.946s2.257-.684 3.435-.684z" fill="#2f2e41"/><path d="m560.088 413.511-7.392-.001-3.516-28.516 10.911.001z" fill="#ffb8b8"/><path d="m547.414 411.398h14.258v8.977h-23.234c-.001-1.178.232-2.346.683-3.435s1.112-2.079 1.946-2.912c.833-.834 1.823-1.495 2.912-1.946s2.257-.684 3.435-.684z" fill="#2f2e41"/><path d="m560.628 406.274h-8.663c-.597-.001-1.176-.198-1.65-.561-.473-.363-.814-.871-.97-1.447l-12.47-46.252c-.02-.072-.065-.134-.128-.175-.063-.04-.138-.056-.212-.044s-.14.051-.187.11c-.046.058-.07.131-.065.206l2.519 43.865c.022.387-.039.776-.18 1.138s-.357.69-.636.961c-.278.271-.611.479-.977.61-.365.131-.755.182-1.142.15l-9.737-.812c-.624-.053-1.211-.32-1.66-.756-.45-.435-.736-1.012-.81-1.634l-8.871-92.108 3.432 2.06 32.158-5.46 12.939 97.077c.051.383.02.773-.092 1.143s-.301.712-.556 1.003-.569.524-.921.684-.734.242-1.121.242z" fill="#2f2e41"/><path d="m525.544 319.248c-3.548-.029-7.023-1.007-10.065-2.833-.469-.278-.842-.691-1.072-1.184-.23-.494-.305-1.046-.216-1.583 1.131-6.927 7.045-42.457 12.427-61.827 2.192-7.889 7.038-12.138 14.404-12.629 10.775-.707 20.352 7.723 21.349 18.814 1.759 19.567-5.387 47.367-8.541 58.411-.122.427-.347.817-.656 1.136-.308.319-.689.558-1.111.695-.422.138-.872.169-1.309.092-.437-.076-.848-.259-1.198-.532l-6.429-5.001c-.396-.302-.885-.457-1.382-.436-.498.021-.972.215-1.341.549-5.419 4.834-10.567 6.328-14.86 6.328z" fill="#3f3d56"/><path d="m546.806 267.58 5.427 22.915-7.84 19.296 5.428-18.693z" fill="#000" opacity=".2"/><path d="m550.426 231.4c1.318.024 2.627-.213 3.852-.697.539-.208 1.099-.379 1.637-.587 4.753-1.836 7.884-6.897 7.997-11.991.112-5.094-2.526-10.038-6.443-13.297-3.917-3.258-8.99-4.931-14.071-5.318-5.472-.417-11.635.97-14.693 5.528-.814 1.213-1.383 2.685-.901 4.149.145.442.403.839.748 1.15 1.366 1.215 2.727.301 4.12.221 1.913-.111 3.632 1.438 4.249 3.252.618 1.815.346 3.812-.153 5.663-.38 1.114-.62 2.27-.713 3.443-.04.588.07 1.177.321 1.71.251.534.634.994 1.113 1.338 1.196.723 2.766.305 3.962-.417 1.197-.721 2.231-1.725 3.523-2.255 1.292-.531 3.029-.414 3.781.764.239.428.401.896.478 1.38.674 3.072.519 2.891 1.193 5.964z" fill="#2f2e41"/><path d="m527.469 392.823-92.741-32.298c-1.591-.556-2.897-1.721-3.631-3.238-.733-1.518-.835-3.265-.282-4.858l24.1-69.201c.407-1.165 1.26-2.122 2.372-2.66 1.112-.537 2.392-.612 3.559-.207l95.876 33.39c1.186.415 2.159 1.283 2.706 2.414s.623 2.433.211 3.62l-24.074 69.125c-.556 1.591-1.721 2.897-3.238 3.631-1.518.733-3.265.835-4.858.282z" fill="#e6e6e6"/><path d="m442.642 356.548 81.096 28.242c1.544.538 3.239.44 4.711-.272 1.472-.711 2.601-1.979 3.139-3.523l19.461-55.879c.537-1.545.44-3.239-.272-4.712-.712-1.472-1.979-2.601-3.523-3.139l-81.096-28.242c-1.544-.538-3.239-.44-4.711.271-1.473.712-2.602 1.979-3.14 3.524l-19.46 55.879c-.266.765-.379 1.574-.333 2.383.047.808.252 1.599.604 2.328.353.729.845 1.382 1.45 1.92.604.539 1.309.953 2.074 1.22z" fill="#fff"/><path d="m463.008 317.288-4.016-1.399c-.218-.076-.397-.235-.497-.443s-.114-.447-.039-.665l1.399-4.016c.076-.218.235-.396.443-.497.208-.1.447-.114.665-.038l4.016 1.398c.218.077.396.236.497.444.1.207.114.446.038.664l-1.398 4.016c-.076.218-.236.397-.443.497-.208.1-.447.114-.665.039z" fill="#37c2cc"/><path d="m459.383 327.694-4.016-1.399c-.218-.076-.397-.235-.497-.443-.1-.207-.114-.446-.039-.664l1.399-4.017c.076-.217.235-.396.443-.496.208-.101.447-.115.665-.039l4.016 1.399c.218.076.396.235.497.443.1.207.114.446.038.664l-1.398 4.017c-.077.217-.236.396-.444.496-.207.101-.446.115-.664.039z" fill="#3f3d56"/><path d="m455.76 338.1-4.016-1.398c-.218-.077-.397-.236-.497-.444-.1-.207-.114-.446-.039-.664l1.399-4.016c.076-.218.235-.397.443-.497s.447-.114.665-.039l4.016 1.399c.218.076.396.235.497.443.1.208.114.447.038.665l-1.398 4.016c-.077.218-.236.396-.444.497-.207.1-.446.114-.664.038z" fill="#ccc"/><path d="m489.996 324.435-19.351-6.739c-.109-.037-.208-.096-.294-.172-.085-.075-.155-.168-.205-.271s-.079-.214-.086-.329c-.007-.114.009-.228.047-.336s.096-.208.172-.293c.077-.086.169-.155.272-.205s.215-.078.329-.085c.114-.006.229.01.337.048l19.351 6.739c.108.038.208.096.293.172.086.076.156.168.205.271.05.103.08.215.086.329.007.114-.009.229-.047.337-.037.108-.096.207-.172.293-.076.085-.169.155-.272.204-.103.05-.215.079-.329.085s-.228-.01-.336-.048z" fill="#ccc"/><path d="m486.37 334.841-19.351-6.739c-.218-.076-.396-.236-.497-.443-.1-.208-.114-.447-.038-.665s.235-.397.443-.497c.208-.101.447-.114.665-.038l19.351 6.739c.108.037.207.095.293.171.085.076.155.168.205.271s.079.215.086.329c.006.114-.01.229-.047.337-.038.108-.097.207-.173.293-.076.085-.168.155-.271.204-.103.05-.215.079-.329.085-.114.007-.229-.009-.337-.047z" fill="#ccc"/><path d="m482.747 345.247-19.351-6.739c-.218-.076-.396-.235-.497-.443-.1-.208-.114-.447-.038-.665s.235-.396.443-.497c.208-.1.447-.114.665-.038l19.35 6.739c.218.076.397.235.498.443.1.208.114.447.038.665-.076.217-.235.396-.443.497-.208.1-.447.114-.665.038z" fill="#ccc"/><path d="m534.244 350.884c.141-.338.274-.682.396-1.032 1.591-4.567 1.302-9.579-.803-13.933s-5.853-7.694-10.42-9.284l-6.36 18.263z" fill="#37c2cc"/><path d="m515.206 346.009 6.36-18.264c-3.361-1.171-6.992-1.332-10.444-.464s-6.574 2.727-8.982 5.348-3.996 5.89-4.569 9.403c-.572 3.513-.104 7.117 1.347 10.367s3.822 6.004 6.82 7.923 6.492 2.919 10.051 2.876 7.027-1.127 9.978-3.118c2.951-1.99 5.254-4.801 6.626-8.086z" fill="#3f3d56"/><path d="m537.977 319.811c-.072-.883.051-1.772.359-2.603.309-.831.796-1.584 1.427-2.207.631-.622 1.391-1.098 2.227-1.395.835-.297 1.725-.407 2.608-.323l8.969-19.594 5.934 9.497-9.427 17.15c-.24 1.473-1.012 2.807-2.17 3.749-1.157.942-2.62 1.426-4.112 1.362-1.491-.065-2.906-.674-3.978-1.713s-1.725-2.434-1.837-3.923z" fill="#ffb8b8"/><path d="m553.504 312.911c-.552 0-1.091-.168-1.546-.482l-4.235-2.932c-.457-.319-.806-.77-.999-1.293s-.22-1.093-.079-1.633l4.978-18.802-6.017-34.91c-.007-1.149.212-2.288.646-3.352.433-1.064 1.072-2.032 1.88-2.848.808-.817 1.769-1.467 2.828-1.912s2.196-.677 3.345-.682c1.149-.006 2.287.215 3.351.65 1.063.435 2.03 1.075 2.846 1.884s1.464 1.77 1.908 2.83.674 2.196.679 3.345l4.93 21.783c1.498 6.611.543 13.541-2.687 19.501l-9.443 17.432c-.182.335-.432.628-.735.86-.302.232-.65.398-1.021.487-.206.049-.417.074-.629.074z" fill="#3f3d56"/><path d="m599.397 420.712h-114.573c-.16 0-.314-.064-.427-.177s-.176-.266-.176-.426.063-.313.176-.427c.113-.113.267-.176.427-.176h114.573c.159 0 .313.063.426.176.113.114.177.267.177.427s-.064.313-.177.426-.267.177-.426.177z" fill="#ccc"/><path d="m295.804 413.209 7.393-.001 3.517-28.515h-10.911z" fill="#a0616a"/><path d="m293.918 410.796 14.559-.001h.001c1.218 0 2.425.24 3.55.706 1.126.466 2.149 1.15 3.01 2.011.862.862 1.545 1.885 2.012 3.01.466 1.126.706 2.333.706 3.551v.302h-23.838z" fill="#2f2e41"/><path d="m266.255 413.209 7.393-.001 3.517-28.515h-10.911z" fill="#a0616a"/><path d="m264.369 410.796 14.559-.001h.001c1.218 0 2.425.24 3.55.706 1.126.466 2.149 1.15 3.011 2.011.861.862 1.545 1.885 2.011 3.01.466 1.126.706 2.333.706 3.551v.302h-23.837z" fill="#2f2e41"/><path d="m297.279 215.793c8.18 0 14.811-6.631 14.811-14.81 0-8.18-6.631-14.811-14.811-14.811-8.179 0-14.81 6.631-14.81 14.811 0 8.179 6.631 14.81 14.81 14.81z" fill="#a0616a"/><path d="m307.239 407.056h-13.719c-.36 0-.715-.071-1.046-.21-.332-.138-.632-.341-.885-.597-.252-.255-.451-.558-.586-.891-.134-.333-.201-.689-.197-1.049l.797-65.144c.003-.231-.083-.455-.24-.625s-.373-.273-.604-.289c-.23-.015-.459.058-.637.206-.178.147-.293.358-.321.587l-7.984 65.626c-.081.658-.399 1.264-.895 1.703-.497.44-1.136.683-1.799.683h-13.851c-.374 0-.744-.077-1.087-.227s-.651-.369-.905-.644-.449-.599-.571-.952c-.123-.354-.171-.729-.142-1.102l9.146-117.03.249-.027 43.796-4.73-5.809 122.127c-.032.697-.332 1.355-.837 1.836-.505.482-1.176.75-1.873.749z" fill="#2f2e41"/><path d="m272.246 294.284c-.704-.001-1.379-.276-1.884-.767-.504-.49-.798-1.158-.82-1.861-.239-7.4-.649-33.004 4.114-51.802 1.299-5.135 4.217-9.716 8.321-13.065s9.177-5.288 14.468-5.531c5.209-.285 10.374 1.078 14.764 3.895s7.782 6.944 9.694 11.797c8.005 20.324 15.568 45.375 6.139 49.304-12.359 5.149-44.939 7.444-54.63 8.025-.056.004-.111.005-.166.005z" fill="#3f3d56"/><path d="m328.852 186.013c.233.239.484.46.752.659l-1.555 29.865-6.467 3.311 3.721 10.413 12.018-4.749c.971-.383 1.791-1.072 2.338-1.961.546-.89.789-1.932.693-2.972l-3.149-33.877c1.03-.769 1.802-1.833 2.213-3.051s.441-2.532.087-3.768c-.355-1.235-1.077-2.334-2.071-3.149s-2.212-1.308-3.494-1.414c-1.281-.105-2.563.181-3.678.823-1.114.641-2.006 1.606-2.558 2.767s-.738 2.462-.533 3.731c.206 1.269.793 2.445 1.683 3.372z" fill="#a0616a"/><path d="m328.172 217.651 4.55 12.928c.129.368.178.759.142 1.147-.035.389-.154.765-.348 1.103s-.459.631-.776.858c-.317.226-.679.382-1.062.456l-13.414 2.598c-1.886.652-3.953.529-5.749-.341-1.795-.87-3.173-2.417-3.829-4.301-.657-1.884-.54-3.952.325-5.749.866-1.798 2.409-3.179 4.291-3.841l12.045-6.358c.345-.182.725-.287 1.114-.309s.779.041 1.142.183.691.361.962.642c.271.28.478.616.607.984z" fill="#3f3d56"/><path d="m264.7 186.013c-.233.239-.484.46-.752.659l1.555 29.865 6.467 3.311-3.721 10.413-12.018-4.749c-.971-.383-1.791-1.072-2.338-1.961-.546-.89-.789-1.932-.693-2.972l3.149-33.877c-1.03-.769-1.802-1.833-2.213-3.051s-.441-2.532-.086-3.768c.354-1.235 1.076-2.334 2.07-3.149s2.213-1.308 3.494-1.414c1.281-.105 2.563.181 3.678.823 1.114.641 2.006 1.606 2.558 2.767s.738 2.462.533 3.731c-.206 1.269-.793 2.445-1.683 3.372z" fill="#a0616a"/><path d="m266.951 216.023c.363-.142.752-.205 1.141-.183.39.022.77.128 1.115.31l12.044 6.357c1.882.662 3.425 2.043 4.291 3.841.865 1.798.982 3.865.326 5.749-.657 1.884-2.034 3.431-3.83 4.301-1.795.871-3.863.993-5.748.341l-13.415-2.597c-.383-.074-.745-.23-1.062-.457s-.582-.519-.776-.858c-.194-.338-.313-.714-.348-1.102-.035-.389.013-.78.143-1.148l4.549-12.928c.129-.368.336-.704.607-.984.271-.281.599-.5.963-.642z" fill="#3f3d56"/><path d="m303.032 203.508c-.077-1.89.397-3.761 1.365-5.385s2.388-2.931 4.087-3.762c4.502-2.324 7.33-7.281 6.091-11.808-1.586-5.794-9.473-9.552-15.863-7.559-1.729.614-3.397 1.39-4.981 2.316l-4.175 2.237c-1.783.893-3.502 1.908-5.146 3.038-2.461 1.814-4.39 4.256-5.586 7.07-1.195 2.814-1.613 5.898-1.21 8.928.822 5.891 4.68 11.293 9.96 14.992 2.02 1.509 4.352 2.546 6.826 3.034 2.531.417 5.349-.057 7.199-1.631 2.893-2.46 2.594-6.58 1.658-10.02-.123-.475-.199-.961-.225-1.45z" fill="#2f2e41"/><path d="m353.367 420.712h-114.573c-.16 0-.313-.064-.426-.177s-.177-.266-.177-.426.064-.313.177-.427c.113-.113.266-.176.426-.176h114.573c.16 0 .314.063.427.176.113.114.176.267.176.427s-.063.313-.176.426-.267.177-.427.177z" fill="#ccc"/><path d="m166.378 310.706-94.5386 38.784c-1.6236.664-3.4443.657-5.0626-.02s-2.902-1.968-3.5696-3.59l-28.9399-70.542c-.4864-1.19-.4812-2.524.0146-3.709.4958-1.186 1.4416-2.126 2.63-2.615l97.7351-40.096c1.21-.495 2.567-.489 3.773.015s2.163 1.467 2.66 2.676l28.908 70.465c.664 1.623.657 3.444-.02 5.062-.676 1.618-1.967 2.902-3.59 3.57z" fill="#e6e6e6"/><path d="m75.2624 340.933 82.6676-33.914c1.574-.646 2.828-1.891 3.484-3.46.657-1.57.663-3.337.017-4.911l-23.369-56.962c-.32-.78-.79-1.489-1.384-2.086-.593-.598-1.299-1.073-2.076-1.398-.778-.325-1.611-.494-2.454-.497-.842-.003-1.677.16-2.457.48l-82.6674 33.914c-.7795.32-1.4883.79-2.0861 1.384s-1.0728 1.299-1.3978 2.077c-.3251.777-.4938 1.611-.4967 2.453-.0029.843.1603 1.678.48 2.457l23.3688 56.963c.3197.779.7899 1.488 1.3836 2.086.5938.597 1.2994 1.072 2.0767 1.397.7773.326 1.611.494 2.4535.497s1.6774-.16 2.4568-.48z" fill="#fff"/><g fill="#e6e6e6"><path d="m137.606 257.22-1.215.499.083.202 1.215-.498z"/><path d="m134.019 258.929-2.456 1.007-.083-.202 2.456-1.007zm-4.911 2.015-2.455 1.007-.083-.203 2.455-1.007zm-4.911 2.014-2.455 1.008-.083-.203 2.455-1.007zm-4.91 2.015-2.456 1.007-.083-.202 2.456-1.008zm-4.911 2.014-2.455 1.008-.083-.203 2.455-1.007zm-4.911 2.015-2.455 1.007-.083-.202 2.455-1.008zm-4.91 2.015-2.456 1.007-.083-.203 2.456-1.007zm-4.9109 2.014-2.4553 1.008-.0832-.203 2.4554-1.007zm-4.9107 2.015-2.4553 1.007-.0831-.202 2.4553-1.008zm-4.9107 2.014-2.4553 1.008-.0831-.203 2.4553-1.007zm-4.9106 2.015-2.4553 1.007-.0831-.202 2.4553-1.008zm-4.9107 2.015-2.4553 1.007-.0831-.203 2.4553-1.007zm-4.9107 2.014-2.4553 1.007-.0831-.202 2.4554-1.007zm-4.9106 2.015-2.4554 1.007-.0831-.203 2.4554-1.007zm-4.9107 2.014-2.4553 1.008-.0831-.203 2.4553-1.007zm-4.9106 2.015-2.4554 1.007-.0831-.202 2.4554-1.008z"/><path d="m55.3638 290.96-1.2154.499.0831.203 1.2154-.499z"/><path d="m105.43 292.431-1.215.499.083.202 1.215-.498z"/><path d="m101.878 294.124-2.4191.993-.0831-.203 2.4192-.992zm-4.838 1.985-2.4188.992-.0831-.202 2.4188-.992zm-4.8377 1.985-2.4189.992-.0831-.203 2.4189-.992zm-4.8377 1.984-2.4189.993-.0831-.203 2.4189-.992zm-4.8377 1.985-2.4189.992-.0831-.202 2.4189-.992zm-4.8378 1.985-2.4189.992-.0831-.202 2.4189-.993zm-4.8377 1.984-2.4189.993-.0831-.203 2.4189-.992zm-4.8377 1.985-2.4189.992-.0831-.202 2.4189-.992z"/><path d="m63.0923 309.798-1.2153.499.0831.202 1.2153-.498z"/><path d="m85.3853 311.066-1.2154.498.0831.203 1.2154-.499z"/><path d="m81.7646 312.789-2.4886 1.02-.0831-.202 2.4886-1.021zm-4.9773 2.041-2.4886 1.021-.0831-.202 2.4886-1.021zm-4.9773 2.042-2.4886 1.021-.0831-.202 2.4886-1.021z"/><path d="m66.7486 318.712-1.2154.499.0831.203 1.2154-.499z"/><path d="m91.6255 326.277-1.2153.498.0831.203 1.2153-.499z"/><path d="m88.0049 327.999-2.4887 1.021-.0831-.202 2.4887-1.021zm-4.9774 2.042-2.4886 1.021-.0831-.202 2.4887-1.021zm-4.9772 2.042-2.4887 1.021-.0831-.202 2.4887-1.021z"/><path d="m72.9888 333.921-1.2154.499.0831.202 1.2154-.498z"/></g><path d="m78.7734 331.968 70.0556-28.74c1.695-.698 3.045-2.04 3.752-3.731.707-1.692.715-3.595.021-5.292l-14.154-34.502-.137.061-17.192 41.106-12.75-5.331c-.236-.099-.491-.142-.745-.127-.255.016-.503.091-.724.219-.332.2-.589.503-.731.864l-9.0097 21.54-9.3225-3.897c-.2012-.084-.417-.127-.635-.128-.2181-.001-.4342.041-.6359.124-.2018.083-.3852.204-.5399.358s-.2776.337-.3617.538c-.0597.146-5.8078 14.249-6.8909 16.938z" fill="#37c2cc"/><path d="m78.5574 332.291-.2019-.084 7.2088-17.239c.1908-.455.5544-.815 1.0108-1.003.4565-.187.9687-.185 1.4241.005l9.1384 3.821 8.9584-21.422c.191-.455.554-.816 1.011-1.003.456-.187.969-.186 1.424.004l12.566 5.255 17.28-41.32.202.084-17.364 41.523-12.768-5.34c-.199-.083-.413-.126-.628-.127-.216-.001-.43.041-.629.123-.2.082-.381.202-.534.354s-.275.333-.358.532l-9.0429 21.624-9.3404-3.906c-.4018-.168-.8537-.169-1.2564-.004-.4028.165-.7236.484-.8921.885z" fill="#3f3d56"/><path d="m85.4272 312.7c.8464 0 1.5326-.686 1.5326-1.533 0-.846-.6862-1.532-1.5326-1.532-.8465 0-1.5327.686-1.5327 1.532 0 .847.6862 1.533 1.5327 1.533z" fill="#3f3d56"/><path d="m105.47 294.063c.847 0 1.533-.686 1.533-1.532 0-.847-.686-1.533-1.533-1.533-.846 0-1.532.686-1.532 1.533 0 .846.686 1.532 1.532 1.532z" fill="#3f3d56"/><path d="m136.681 258.802c.847 0 1.533-.687 1.533-1.533s-.686-1.533-1.533-1.533c-.846 0-1.533.687-1.533 1.533s.687 1.533 1.533 1.533z" fill="#3f3d56"/><path d="m50.8962 309.428c.7967-.397 1.4969-.963 2.051-1.659.5542-.697.949-1.506 1.1565-2.372.2076-.865.2228-1.765.0448-2.637-.1781-.872-.5452-1.695-1.0755-2.409l4.552-44.505h-9.8372l-3.6175 43.457c-1.1417.97-1.8877 2.325-2.0967 3.809-.2091 1.484.1333 2.993.9624 4.241s2.0871 2.148 3.5358 2.531c1.4487.382 2.9874.22 4.3244-.456z" fill="#ffb8b8"/><path d="m59.9274 231.284c7.6865 0 13.9176-6.231 13.9176-13.917 0-7.687-6.2311-13.918-13.9176-13.918s-13.9176 6.231-13.9176 13.918c0 7.686 6.2311 13.917 13.9176 13.917z" fill="#ffb8b8"/><path d="m62.548 281.764c-.5572 0-1.0988-.183-1.542-.521-.4431-.338-.7632-.811-.9111-1.348-1.1151-4.052-4.0162-10.901-8.6224-20.36-1.0394-2.138-1.615-4.472-1.6889-6.848-.074-2.377.3552-4.742 1.2596-6.94.9043-2.199 2.2633-4.182 3.9878-5.818 1.7245-1.637 3.7755-2.89 6.0184-3.678 2.1256-.751 4.3801-1.067 6.6301-.931 2.2501.136 4.45.722 6.4696 1.723 2.0197 1.001 3.818 2.397 5.2885 4.106 1.4706 1.708 2.5836 3.694 3.2732 5.84 3.5704 11.194 3.398 23.184 3.1581 27.82-.0298.558-.2417 1.091-.6034 1.517s-.8532.722-1.3991.843l-20.7716 4.536c-.1796.039-.363.059-.5468.059z" fill="#ff6584"/><path d="m82.6633 413.925h6.9468l3.3051-26.796-10.2531.001z" fill="#ffb8b8"/><path d="m103.008 420.375-21.8338.001-.0004-8.436h13.3979c1.1078 0 2.2048.218 3.2282.642 1.0235.423 1.9535 1.045 2.7371 1.828.783.783 1.405 1.713 1.829 2.737.424 1.023.642 2.12.642 3.228z" fill="#2f2e41"/><path d="m13.1953 404.921 6.0881 3.347 15.8062-21.889-8.9843-4.94z" fill="#ffb8b8"/><path d="m27.916 420.375-19.13276-10.519 4.06406-7.392 11.7406 6.455c1.9605 1.078 3.4126 2.89 4.0367 5.039.6242 2.148.3693 4.456-.7086 6.417z" fill="#2f2e41"/><path d="m82.3374 399.051c-.6191 0-1.2168-.226-1.6816-.635-.4649-.409-.7651-.973-.8447-1.587l-8.6881-66.949c-.0384-.296-.1694-.573-.3743-.79s-.4732-.364-.7665-.42c-.2934-.055-.5969-.017-.8671.11s-.4934.336-.6376.598l-36.2084 65.693c-.2988.536-.7801.947-1.3565 1.159-.5764.211-1.2095.209-1.7843-.007l-7.8924-3.007c-.3175-.121-.6075-.304-.8532-.538-.2457-.235-.442-.516-.5775-.828-.1354-.311-.2073-.647-.2113-.986-.004-.34.0599-.677.188-.992l25.0825-61.616c.0636-.157.1066-.321.1281-.488 3.3973-26.295 12.0412-39.667 14.6094-43.139.1876-.255.311-.551.3599-.864s.0219-.633-.0789-.934l-.3531-1.059c-.141-.42-.1699-.87-.0838-1.305.086-.435.2841-.84.5746-1.175 9.2542-10.541 25.3839-4.789 25.5458-4.73l.0808.03.0506.069c18.0862 24.804 11.3991 105.367 9.875 121.265-.0569.597-.3233 1.155-.752 1.575s-.9921.675-1.5906.719l-10.6948.824c-.0665.005-.1324.007-.198.007z" fill="#2f2e41"/><path d="m114.034 233.535c-.07.306-.115.617-.136.93l-24.3418 14.042-5.9166-3.406-6.3076 8.258 9.8884 7.048c.7988.569 1.7608.864 2.7415.84s1.9271-.365 2.6973-.973l25.1008-19.802c1.133.419 2.366.484 3.537.185 1.17-.299 2.222-.947 3.015-1.858s1.29-2.042 1.424-3.243c.135-1.2-.099-2.413-.671-3.477s-1.454-1.929-2.529-2.48c-1.075-.55-2.292-.761-3.49-.603-1.197.159-2.318.678-3.214 1.488-.895.811-1.522 1.875-1.798 3.051z" fill="#ffb8b8"/><path d="m88.7416 249.171-7.8673 10.196c-.2238.29-.5076.529-.8319.699-.3243.171-.6816.27-1.0475.29-.3658.02-.7317-.039-1.0727-.174-.3411-.134-.6491-.34-.9033-.604l-8.9063-9.248c-1.4778-1.154-2.4379-2.846-2.6696-4.707-.2317-1.86.2837-3.737 1.4333-5.218 1.1497-1.481 2.8396-2.445 4.6994-2.682s3.7376.273 5.2218 1.419l11.1704 6.246c.3198.179.5972.425.8135.72.2162.296.3661.635.4396.994.0734.359.0686.73-.0141 1.087-.0828.357-.2415.692-.4653.982z" fill="#ff6584"/><path d="m58.2491 266.887-12.6737-2.289c-.3606-.065-.703-.207-1.0037-.416-.3008-.21-.5529-.481-.7392-.797-.1862-.315-.3023-.667-.3403-1.032-.0379-.364.0031-.733.1203-1.08l4.1086-12.164c.3435-1.844 1.4039-3.475 2.9487-4.538 1.5448-1.062 3.4479-1.469 5.2919-1.13 1.8441.338 3.4787 1.394 4.5453 2.936s1.4783 3.444 1.1447 5.289l-.4009 12.792c-.0116.366-.102.726-.265 1.054-.1631.328-.3949.617-.6798.848-.2848.23-.616.397-.971.487-.355.091-.7254.105-1.086.04z" fill="#ff6584"/><path d="m62.1299 214.167c3.5772 2.448 8.274 4.965 11.9275 2.357 1.1428-.87 1.973-2.087 2.3664-3.468.3933-1.382.3286-2.854-.1844-4.196-1.7494-5.002-6.5559-7.205-11.1521-8.893-5.975-2.195-12.481-3.941-18.6492-2.369-6.1683 1.572-11.6196 7.544-10.5061 13.811.8954 5.04 5.6495 9.234 4.9746 14.308-.6792 5.107-6.4223 7.795-11.4926 8.708-5.0703.912-10.744 1.205-14.3878 4.847-4.6483 4.646-3.4875 12.95.8863 17.855 4.3739 4.906 10.9744 7.129 17.3702 8.64 8.474 2.003 17.6394 3.056 25.6876-.268s14.3112-12.271 11.9798-20.66c-.9848-3.544-3.3047-6.539-5.5467-9.454-2.2421-2.916-4.5123-5.965-5.3676-9.542-.7127-2.981-.1852-6.442 1.7917-8.678.3595-.392.5858-.887.6463-1.415s-.0478-1.062-.3095-1.524z" fill="#2f2e41"/><path d="m115.176 420.712h-114.572985c-.159929 0-.313309-.064-.426396-.177-.1130877-.113-.176619-.266-.176619-.426s.0635313-.313.176619-.427c.113087-.113.266467-.176.426396-.176h114.572985c.16 0 .313.063.426.176.113.114.177.267.177.427s-.064.313-.177.426-.266.177-.426.177z" fill="#ccc"/></g></svg>